<svg width="1200" height="900" viewBox="0 0 1200 900" fill="none" xmlns="http://www.w3.org/2000/svg">
  <defs>
    <linearGradient id="g" x1="0" y1="0" x2="1200" y2="900" gradientUnits="userSpaceOnUse">
      <stop stop-color="#EAF4FF"/>
      <stop offset="1" stop-color="#F4F9EE"/>
    </linearGradient>
  </defs>
  <rect width="1200" height="900" fill="url(#g)"/>
  <rect x="170" y="170" width="860" height="560" rx="42" fill="#FFFFFF" stroke="#D8E3EB" stroke-width="2"/>
  <rect x="250" y="250" width="320" height="480" rx="24" fill="#EEF6FF"/>
  <rect x="290" y="320" width="240" height="14" rx="7" fill="#8ABBE3"/>
  <rect x="290" y="350" width="200" height="14" rx="7" fill="#B3D4F2"/>
  <rect x="290" y="420" width="120" height="36" rx="18" fill="#357FCD"/>
  <rect x="640" y="250" width="320" height="220" rx="24" fill="#F2FAF1"/>
  <circle cx="720" cy="360" r="34" fill="#7DBE6F"/>
  <circle cx="800" cy="360" r="34" fill="#A4D997"/>
  <circle cx="880" cy="360" r="34" fill="#C4E9BA"/>
  <rect x="640" y="510" width="320" height="220" rx="24" fill="#F9FCF5"/>
  <rect x="690" y="570" width="220" height="13" rx="6.5" fill="#A7D79A"/>
  <rect x="690" y="597" width="180" height="13" rx="6.5" fill="#CCE9C3"/>
</svg>
