<svg width="1200" height="900" viewBox="0 0 1200 900" fill="none" xmlns="http://www.w3.org/2000/svg">
  <defs>
    <linearGradient id="g" x1="0" y1="0" x2="1200" y2="900" gradientUnits="userSpaceOnUse">
      <stop stop-color="#ECF8FF"/>
      <stop offset="1" stop-color="#F8FBF1"/>
    </linearGradient>
  </defs>
  <rect width="1200" height="900" fill="url(#g)"/>
  <circle cx="220" cy="180" r="140" fill="#CBE6FD"/>
  <circle cx="980" cy="180" r="160" fill="#D8EFC8"/>
  <rect x="160" y="220" width="880" height="540" rx="44" fill="#FFFFFF" stroke="#D8E7E3" stroke-width="2"/>
  <rect x="250" y="300" width="360" height="380" rx="24" fill="#EEF7FF"/>
  <rect x="300" y="355" width="260" height="16" rx="8" fill="#88BFEA"/>
  <rect x="300" y="389" width="240" height="16" rx="8" fill="#A9D4F5"/>
  <rect x="300" y="423" width="220" height="16" rx="8" fill="#C9E3F9"/>
  <rect x="300" y="475" width="120" height="40" rx="20" fill="#398FDE"/>
  <rect x="650" y="300" width="300" height="180" rx="24" fill="#F2FAF2"/>
  <circle cx="725" cy="390" r="32" fill="#7CC26D"/>
  <circle cx="800" cy="390" r="32" fill="#9BD58E"/>
  <circle cx="875" cy="390" r="32" fill="#B9E5AE"/>
  <rect x="650" y="520" width="300" height="160" rx="24" fill="#FAFCF5"/>
  <rect x="690" y="560" width="220" height="14" rx="7" fill="#A7D89A"/>
  <rect x="690" y="590" width="180" height="14" rx="7" fill="#C9E8C1"/>
</svg>
