<svg width="1200" height="900" viewBox="0 0 1200 900" fill="none" xmlns="http://www.w3.org/2000/svg">
  <defs>
    <linearGradient id="g" x1="0" y1="0" x2="1200" y2="900" gradientUnits="userSpaceOnUse">
      <stop stop-color="#EAF7FF"/>
      <stop offset="1" stop-color="#EAF9F5"/>
    </linearGradient>
  </defs>
  <rect width="1200" height="900" fill="url(#g)"/>
  <circle cx="240" cy="160" r="140" fill="#CDE3FB"/>
  <circle cx="980" cy="180" r="180" fill="#C7EFE5"/>
  <rect x="170" y="220" width="860" height="530" rx="42" fill="#FFFFFF" stroke="#D7E6E1" stroke-width="2"/>
  <rect x="250" y="300" width="380" height="200" rx="24" fill="#F2F9FF"/>
  <rect x="300" y="350" width="280" height="14" rx="7" fill="#8BBFE8"/>
  <rect x="300" y="380" width="250" height="14" rx="7" fill="#B5D8F5"/>
  <rect x="250" y="530" width="380" height="160" rx="24" fill="#F6FCFA"/>
  <circle cx="330" cy="610" r="35" fill="#77CDB7"/>
  <circle cx="430" cy="610" r="35" fill="#8BC5EC"/>
  <circle cx="530" cy="610" r="35" fill="#F1B96F"/>
  <rect x="690" y="300" width="260" height="390" rx="24" fill="#F2FAF8"/>
  <rect x="730" y="350" width="180" height="16" rx="8" fill="#8DD1C0"/>
  <rect x="730" y="384" width="210" height="16" rx="8" fill="#AEE1D5"/>
  <rect x="730" y="418" width="160" height="16" rx="8" fill="#D0EEE5"/>
  <rect x="730" y="470" width="120" height="36" rx="18" fill="#189A80"/>
</svg>
